<svg width="40" height="31" viewBox="0 0 40 31" fill="none" xmlns="http://www.w3.org/2000/svg">
<g clip-path="url(#clip0_130_5708)">
<mask id="mask0_130_5708" style="mask-type:alpha" maskUnits="userSpaceOnUse" x="0" y="7" width="36" height="23">
<path d="M0 7.03223H35.9492V29.6797H0V7.03223Z" fill="white"/>
</mask>
<g mask="url(#mask0_130_5708)">
<path fill-rule="evenodd" clip-rule="evenodd" d="M0.0305085 21.7922C1.20508 23.5596 2.65119 25.2518 4.34746 26.5693C5.19661 27.2308 6.11797 27.7998 7.10898 28.2066C8.10153 28.5946 9.16932 28.8325 10.2239 29.0273C12.3437 29.401 14.5266 29.429 16.6388 29.0359C18.7551 28.6622 20.7783 27.8751 22.6683 26.8576C24.5537 25.8188 26.3192 24.5629 27.8619 23.0629C29.4168 21.5756 30.7439 19.862 31.9531 18.0747C33.1271 16.2661 34.3241 14.434 35.1473 12.4596C35.3364 11.9634 35.5149 11.4554 35.5709 10.9444C35.5958 10.6901 35.5927 10.4369 35.5302 10.2061C35.4666 9.97015 35.3308 9.80184 35.1386 9.58472C34.8458 9.19574 34.3419 8.9293 33.8995 8.63642C33.4419 8.35371 32.9736 8.08218 32.5022 7.82083L32.5002 7.82032L32.4783 7.80659C31.9612 7.46591 31.2508 7.33981 30.5908 7.35811C30.2614 7.37235 29.9034 7.39727 29.608 7.4954C29.297 7.60705 29.0058 7.76735 28.7451 7.97032C27.6742 8.79659 26.8393 9.94066 26.1112 11.0949L26.1163 11.0847L22.379 18.6539C20.9064 21.0905 18.7078 23.0674 16.1115 24.2085C14.8091 24.7715 13.4191 25.1052 12.0031 25.1949C10.5925 25.2622 9.17875 25.173 7.7878 24.929C5.02627 24.4291 2.30186 23.3822 0.0305085 21.7932V21.7922ZM0 21.7581C2.36413 23.3035 5.02117 24.3455 7.80559 24.8191C9.18864 25.0505 10.5956 25.1283 11.9949 25.0495C13.3912 24.951 14.7599 24.6116 16.0403 24.0462C18.5878 22.9093 20.7488 20.9181 22.1675 18.5435L25.858 10.9581L25.8636 10.9479C26.6059 9.75913 27.4286 8.60489 28.5585 7.71964C28.8451 7.49391 29.1661 7.31571 29.5093 7.19184C29.8759 7.07184 30.2202 7.05354 30.5822 7.03371C31.2986 7.01845 32.0308 7.11659 32.6853 7.53964L32.6624 7.52489C33.1419 7.7857 33.6151 8.05798 34.0815 8.3415C34.5356 8.64354 35.0354 8.88405 35.4142 9.35845C35.5825 9.54201 35.8017 9.80845 35.8769 10.1044C35.9588 10.3993 35.9598 10.6962 35.9344 10.981C35.8734 11.552 35.6903 12.0803 35.4986 12.5964C34.6612 14.641 33.4775 16.4746 32.3069 18.3101C31.1019 20.1244 29.7661 21.8761 28.1776 23.3893C26.6059 24.9183 24.8039 26.2012 22.888 27.2578C19.0653 29.4107 14.4651 30.2013 10.168 29.3323C9.09458 29.1178 8.03542 28.8676 7.00831 28.4512C5.99542 28.019 5.06288 27.424 4.2117 26.7396C2.52309 25.3426 1.0969 23.6559 0 21.7586" fill="#231F20"/>
</g>
<mask id="mask1_130_5708" style="mask-type:alpha" maskUnits="userSpaceOnUse" x="32" y="0" width="8" height="8">
<path d="M32.3096 0H39.7567V7.64237H32.3096V0Z" fill="white"/>
</mask>
<g mask="url(#mask1_130_5708)">
<path fill-rule="evenodd" clip-rule="evenodd" d="M32.3145 7.60518C32.9689 6.75857 33.6233 5.92569 34.1847 5.03586C34.7664 4.17196 35.2195 3.21908 35.7595 2.28196C36.0249 1.81518 36.2933 1.34942 36.6147 0.908065C36.7754 0.688404 36.9452 0.471794 37.1628 0.284167C37.3733 0.080777 37.7039 -0.0199009 37.981 0.00196351C38.5606 0.0172177 39.0884 0.368065 39.3691 0.840947C39.6493 1.31993 39.7464 1.86908 39.7566 2.40196C39.7568 2.40499 39.7564 2.40802 39.7554 2.41088C39.7544 2.41373 39.7528 2.41636 39.7508 2.4186C39.7487 2.42083 39.7462 2.42263 39.7435 2.42388C39.7407 2.42512 39.7377 2.4258 39.7347 2.42586C39.7289 2.42587 39.7233 2.42367 39.719 2.41971C39.7148 2.41574 39.7122 2.41031 39.7118 2.40451C39.6711 1.87722 39.5415 1.34739 39.2542 0.916201C38.9669 0.490099 38.4772 0.214506 37.9789 0.230777C37.4583 0.19315 37.1562 0.654845 36.8578 1.0784C36.5695 1.51315 36.3239 1.98349 36.0818 2.45484C35.6003 3.38688 35.224 4.41756 34.5625 5.29518C33.9147 6.16162 33.1932 6.9701 32.3466 7.63823C32.3441 7.64001 32.3414 7.64129 32.3384 7.64199C32.3355 7.6427 32.3325 7.64282 32.3295 7.64235C32.3265 7.64188 32.3237 7.64082 32.3211 7.63924C32.3185 7.63766 32.3163 7.63559 32.3145 7.63315C32.3074 7.62501 32.3084 7.61332 32.3145 7.60518Z" fill="#231F20"/>
</g>
<path fill-rule="evenodd" clip-rule="evenodd" d="M34.8928 9.14368C34.9009 8.34283 35.0189 7.55927 35.1363 6.77571C35.266 5.99418 35.4841 5.22995 35.6916 4.46571C35.8941 3.69898 36.1222 2.93923 36.3755 2.18774C36.5077 1.81351 36.6501 1.44079 36.8184 1.07927C37.0024 0.740625 37.1453 0.312998 37.5485 0.14571C37.5607 0.142151 37.5735 0.146727 37.578 0.158422C37.5816 0.168591 37.578 0.181303 37.5668 0.18588L37.5567 0.191473C37.2211 0.358252 37.0919 0.78893 36.9445 1.13317C36.8072 1.49927 36.6953 1.87656 36.5936 2.25639C36.3862 3.01486 36.204 3.78003 36.0475 4.55063C35.8884 5.32249 35.7724 6.10198 35.5848 6.86724C35.386 7.63046 35.205 8.39774 34.9375 9.15079C34.9366 9.15373 34.9351 9.15646 34.9331 9.1588C34.9311 9.16115 34.9287 9.16306 34.9259 9.16444C34.9232 9.16582 34.9202 9.16663 34.9171 9.16681C34.914 9.167 34.9109 9.16657 34.908 9.16554C34.8989 9.163 34.8928 9.15283 34.8928 9.14368ZM25.2562 16.9488C25.8063 15.3938 26.4653 13.876 27.2626 12.4203C27.6668 11.6962 28.0833 10.966 28.6482 10.334C29.2192 9.74469 29.926 9.10503 30.8036 9.07198C30.8163 9.07096 30.8265 9.08113 30.8275 9.09385C30.8275 9.10402 30.8189 9.11317 30.8097 9.11673C30.0384 9.40249 29.4979 10.0101 28.996 10.631C28.5063 11.2666 28.0197 11.9169 27.5789 12.6059C26.7246 13.9981 25.9691 15.4635 25.2984 16.965C25.2974 16.9679 25.2958 16.9705 25.2937 16.9727C25.2917 16.9749 25.2892 16.9767 25.2865 16.9779C25.2837 16.9792 25.2807 16.9798 25.2777 16.9799C25.2747 16.9799 25.2717 16.9794 25.2689 16.9783C25.2635 16.9758 25.2592 16.9714 25.2568 16.966C25.2545 16.9605 25.2542 16.9544 25.2562 16.9488Z" fill="#231F20"/>
</g>
<defs>
<clipPath id="clip0_130_5708">
<rect width="40" height="31" fill="white"/>
</clipPath>
</defs>
</svg>
