<svg width="40" height="31" viewBox="0 0 40 31" fill="none" xmlns="http://www.w3.org/2000/svg">
<path fill-rule="evenodd" clip-rule="evenodd" d="M23.003 21.9294L16.4365 12.8994L23.393 21.6347C23.473 21.734 23.4517 21.8826 23.3452 21.9665C23.2391 22.0499 23.0887 22.0366 23.0091 21.9378C23.0068 21.9352 23.0048 21.9324 23.003 21.9294Z" fill="#010202"/>
<path d="M23.0466 21.5725C23.4101 22.0367 23.7449 26.1122 23.7449 26.1122C23.7449 26.1122 26.1275 23.4175 26.6649 19.6389C27.2014 15.8602 26.4692 15.355 25.8336 13.4359C25.1979 11.5168 22.5162 9.04269 21.144 8.36328C20.1544 7.87357 16.9857 6.76004 15.2692 6.16842C14.6509 5.95666 13.954 6.30607 13.7344 6.93431C12.7153 9.85401 12.5218 12.9771 13.3623 15.8522C13.8609 17.557 14.7183 19.1672 16.1849 19.9561C16.1849 19.9561 19.6005 21.659 21.8749 21.2284C24.1483 20.7978 23.7301 25.1372 23.7301 25.1372" stroke="#010202" stroke-width="0.5" stroke-linecap="round" stroke-linejoin="round"/>
<path fill-rule="evenodd" clip-rule="evenodd" d="M20.4783 29.8626L18.733 30.1679L17.1104 29.4479L15.3443 29.3204L13.9387 28.2272L12.2535 27.6744L11.147 26.2715L9.6413 25.326L8.89739 23.6954L7.65826 22.4116L7.32087 20.6469L6.42087 19.0997L6.50913 17.305L6 15.584L6.5087 13.8629L6.42087 12.0682L7.32087 10.5206L7.65826 8.75677L8.89739 7.47294L9.64087 5.84191L11.147 4.89603L12.2535 3.49309L13.9387 2.94074L15.3443 1.8475L17.1104 1.72L18.733 1L20.4783 1.30529L22.2235 1L23.8461 1.72L25.6122 1.8475L27.0178 2.94074L28.703 3.49353L29.8096 4.89647L31.3152 5.84191L32.0591 7.4725L33.2983 8.75632L33.6356 10.521L34.5356 12.0682L34.4474 13.8629L34.9565 15.584L34.4478 17.305L34.5356 19.0997L33.6356 20.6474L33.2983 22.4112L32.0591 23.695L31.3157 25.326L29.8096 26.2719L28.703 27.6749L27.0178 28.2272L25.6122 29.3204L23.8461 29.4479L22.2235 30.1679L20.4783 29.8626Z" stroke="black" stroke-width="0.5"/>
</svg>
