<svg width="40" height="31" viewBox="0 0 40 31" fill="none" xmlns="http://www.w3.org/2000/svg">
<path fill-rule="evenodd" clip-rule="evenodd" d="M24.3949 24.2254L30.0713 10.3447L24.9728 24.4482C24.959 24.4864 24.9378 24.5215 24.9104 24.5516C24.883 24.5816 24.8499 24.606 24.8131 24.6232C24.7763 24.6405 24.7365 24.6503 24.6958 24.6522C24.6552 24.654 24.6146 24.6479 24.5764 24.6341C24.5382 24.6202 24.503 24.599 24.473 24.5716C24.443 24.5442 24.4186 24.5112 24.4014 24.4744C24.3841 24.4376 24.3743 24.3977 24.3724 24.3571C24.3705 24.3165 24.3767 24.2759 24.3905 24.2377L24.3949 24.2254Z" fill="#010202"/>
<path d="M17.1036 24.7786C17.1036 24.7786 12.1477 23.5525 10.3816 21.5411C8.61652 19.5286 5.76947 16.6835 6.01488 4.66238C6.01488 4.66238 7.8798 2.74927 17.7906 8.09714M24.8018 24.0099C24.5067 24.7462 25.4441 30.0773 25.4441 30.0773C25.4441 30.0773 21.6173 27.5755 19.7042 22.9634C17.7901 18.3512 18.5268 17.4193 18.6739 14.7207C18.8205 12.0217 21.305 7.81091 22.7706 6.40435C23.8265 5.39025 27.3616 2.72566 29.2806 1.29599C29.444 1.1745 29.6305 1.08758 29.8286 1.04054C30.0267 0.993498 30.2323 0.987325 30.4329 1.02239C30.6334 1.05747 30.8247 1.13304 30.9951 1.24451C31.1655 1.35599 31.3114 1.50101 31.4239 1.67074C33.6478 4.99533 34.9196 8.90664 34.8365 12.906C34.7873 15.278 34.2636 17.6696 32.7188 19.2517C32.7188 19.2517 29.0755 22.7671 26.1311 23.1104C23.1877 23.4537 25.1406 28.8271 25.1406 28.8271L24.8018 24.0099Z" stroke="#010202" stroke-width="0.5" stroke-linecap="round" stroke-linejoin="round"/>
<path fill-rule="evenodd" clip-rule="evenodd" d="M11.9118 9.99589C12.6401 10.7177 13.3359 11.4715 13.997 12.2552C14.3285 12.6472 14.6801 13.0288 14.9418 13.4798C15.1818 13.9323 15.4651 14.4123 15.4572 14.9631C15.4571 14.968 15.4554 14.9728 15.4523 14.9767C15.4492 14.9805 15.4449 14.9832 15.4401 14.9843C15.4353 14.9855 15.4303 14.985 15.4258 14.9829C15.4213 14.9808 15.4177 14.9773 15.4154 14.9729L15.4139 14.969C15.1818 14.5161 14.8754 14.128 14.5729 13.7247C14.2734 13.3215 14.0079 12.8897 13.7177 12.4721C13.1213 11.6441 12.5082 10.8282 11.8788 10.0249C11.877 10.0226 11.8756 10.02 11.8748 10.0172C11.874 10.0144 11.8738 10.0115 11.8742 10.0086C11.8746 10.0057 11.8755 10.0029 11.877 10.0004C11.8785 9.99786 11.8804 9.99566 11.8828 9.99393C11.887 9.99059 11.8923 9.98894 11.8977 9.98931C11.903 9.98967 11.9081 9.99202 11.9118 9.99589Z" fill="#010202"/>
</svg>
